<svg xmlns="http://www.w3.org/2000/svg" viewBox="0 0 475.99 73.34"><defs><style>.cls-1{fill:#141415;}</style></defs><g id="레이어_2" data-name="레이어 2"><g id="레이어_1-2" data-name="레이어 1"><path class="cls-1" d="M64.42,26.14a5.82,5.82,0,0,0-6,5.57,6.05,6.05,0,0,0,12.07,0A5.83,5.83,0,0,0,64.42,26.14Z"/><path class="cls-1" d="M5.21.89v7h7V57.73c0,3.85-2,5.33-2.09,5.39l-.09.07s-2.28,1.9-8.66,1.59L0,64.72l3.17,8.39.49.09a12.89,12.89,0,0,0,2,.14,20.21,20.21,0,0,0,8.08-1.75c.74-.25,8.26-3.15,8.12-15V.89Z"/><polygon class="cls-1" points="116.45 48.91 116.45 32.9 140.21 32.9 140.21 24.7 116.31 24.7 116.31 8.91 141.09 8.91 141.12 0.89 106.96 0.89 106.96 57.1 141.83 57.1 141.83 48.95 116.45 48.91"/><path class="cls-1" d="M211,33.39c-.4-.94-2.81-4.67-16.53-11.27-1.74-.95-6.3-4-6.46-6.46l-.05-.21a4.77,4.77,0,0,1,.37-3.4c.8-1.48,2.46-2.55,4.94-3.21a18.54,18.54,0,0,1,12.9,2,15.49,15.49,0,0,1,3.76,2.66l1.56,2.05V4.16l-.38-.25A25.92,25.92,0,0,0,192.92.42c-.11,0-11.11,1.08-13.94,11-.1.32-2.38,8,3.71,13.68.1.1,2.49,2.62,16.24,10.25a14.21,14.21,0,0,1,3.63,2.94c2.07,2.4,2.49,5,1.28,7.57,0,.05-2.58,4.92-11.14,3.56h-.1s-6-.36-12.36-7.14l-1.5-1.58v11.8l.29.25c.2.18,4.84,4.21,15.47,5.11a13.48,13.48,0,0,0,1.86.1c3.11,0,9.47-.71,14.14-6C210.58,51.85,218,43.08,211,33.39Z"/><polygon class="cls-1" points="282.82 0.85 244.18 0.85 244.21 8.75 259.28 8.65 259.38 57.17 267.39 57.17 267.39 8.61 282.82 8.61 282.82 0.85"/><polygon class="cls-1" points="315.87 0.85 315.79 57.17 324.93 57.17 324.93 0.85 315.87 0.85"/><polygon class="cls-1" points="394.42 0.85 394.42 40.85 367.98 0.85 361.41 0.85 361.41 57.17 368.86 57.17 368.86 17.63 395.02 57.17 401.96 57.17 401.96 0.85 394.42 0.85"/><path class="cls-1" d="M467.48,57.17H476L455.11.87h-6.26l-20,56.29h8.56L443.05,41h18.32ZM451.87,15.8l6.25,16.56H446.07Z"/></g></g></svg>